<svg xmlns="http://www.w3.org/2000/svg" viewBox="0 0 320 400" fill="none" aria-hidden="true">
  <path stroke="currentColor" stroke-width="1.2" stroke-linecap="round" d="M160 380V120"/>
  <path stroke="currentColor" stroke-width="1" stroke-linecap="round" d="M160 200c-42-28-88-24-110 8s8 72 52 88M160 240c42-28 88-24 110 8s-8 72-52 88"/>
  <path stroke="currentColor" stroke-width="1" stroke-linecap="round" d="M160 160c-36-20-72-16-90 12s6 58 42 70M160 280c36-20 72-16 90 12s-6 58-42 70"/>
  <path stroke="currentColor" stroke-width="1" stroke-linecap="round" d="M160 100c-28-48-20-92 16-108M160 100c28-48 20-92-16-108"/>
  <ellipse cx="160" cy="88" rx="18" ry="28" stroke="currentColor" stroke-width="1"/>
</svg>
