<svg xmlns="http://www.w3.org/2000/svg" viewBox="0 0 320 480" fill="none" aria-hidden="true">
  <path fill="#2a4a32" fill-opacity="0.35" d="M148 28c-8 42-6 78 12 108-18 8-32 28-38 52-14 58 22 118 78 128 56 10 112-28 118-84 4-40-18-76-48-98 8-30 6-64-6-96-4-12-14-18-26-18s-24 8-28 20z"/>
  <path stroke="#7a9a72" stroke-width="1.2" stroke-linecap="round" d="M156 36v92M148 128c-24 12-40 36-44 68M172 128c20 14 34 38 38 70"/>
  <path fill="#3d6b4a" fill-opacity="0.55" d="M118 200c-6 48 8 96 42 128 34 32 82 40 120 20 38-20 58-62 48-104-10-42-48-72-90-76-36-4-72 12-96 38-12-28-8-58 4-86z"/>
  <ellipse cx="160" cy="248" rx="72" ry="88" fill="#4a7c59" fill-opacity="0.4"/>
  <path stroke="#c8d4b8" stroke-width="1" d="M88 210c32-18 72-22 108-8M232 210c-32-18-72-22-108-8"/>
  <path fill="#1e3320" fill-opacity="0.7" d="M132 300c-4 52 16 98 52 118 36 20 82 12 108-22 26-34 28-82 6-118-22-36-62-58-102-54-40 4-72 32-64 76z"/>
  <path stroke="#e8e4d9" stroke-width="0.8" stroke-opacity="0.5" d="M160 268v140"/>
</svg>
